<mxfile host="app.diagrams.net" agent="Mozilla/5.0 (Windows NT 10.0; Win64; x64) AppleWebKit/537.36 (KHTML, like Gecko) Chrome/131.0.0.0 Safari/537.36" version="24.8.8">
  <diagram name="Page-1" id="IjOLqiJS-7-UUOob4A8C">
    <mxGraphModel grid="1" page="1" gridSize="10" guides="1" tooltips="1" connect="1" arrows="1" fold="1" pageScale="1" pageWidth="850" pageHeight="1100" math="0" shadow="0">
      <root>
        <mxCell id="0" />
        <mxCell id="1" parent="0" />
        <mxCell id="_W8vgeuEJa8TuwuFwRIY-3" style="edgeStyle=orthogonalEdgeStyle;rounded=0;orthogonalLoop=1;jettySize=auto;html=1;exitX=0.5;exitY=1;exitDx=0;exitDy=0;entryX=0.5;entryY=0;entryDx=0;entryDy=0;" edge="1" parent="1" source="_W8vgeuEJa8TuwuFwRIY-1" target="_W8vgeuEJa8TuwuFwRIY-2">
          <mxGeometry relative="1" as="geometry" />
        </mxCell>
        <mxCell id="_W8vgeuEJa8TuwuFwRIY-1" value="" style="ellipse;whiteSpace=wrap;html=1;aspect=fixed;fillColor=#000000;" vertex="1" parent="1">
          <mxGeometry x="110" y="80" width="30" height="30" as="geometry" />
        </mxCell>
        <mxCell id="_W8vgeuEJa8TuwuFwRIY-5" style="edgeStyle=orthogonalEdgeStyle;rounded=0;orthogonalLoop=1;jettySize=auto;html=1;exitX=0.5;exitY=1;exitDx=0;exitDy=0;entryX=0.5;entryY=0;entryDx=0;entryDy=0;" edge="1" parent="1" source="_W8vgeuEJa8TuwuFwRIY-2" target="_W8vgeuEJa8TuwuFwRIY-4">
          <mxGeometry relative="1" as="geometry" />
        </mxCell>
        <mxCell id="_W8vgeuEJa8TuwuFwRIY-2" value="Welcome Page Idle" style="rounded=1;whiteSpace=wrap;html=1;" vertex="1" parent="1">
          <mxGeometry x="65" y="140" width="120" height="60" as="geometry" />
        </mxCell>
        <mxCell id="_W8vgeuEJa8TuwuFwRIY-7" style="edgeStyle=orthogonalEdgeStyle;rounded=0;orthogonalLoop=1;jettySize=auto;html=1;exitX=0.5;exitY=1;exitDx=0;exitDy=0;entryX=0.5;entryY=0;entryDx=0;entryDy=0;" edge="1" parent="1" source="_W8vgeuEJa8TuwuFwRIY-4" target="_W8vgeuEJa8TuwuFwRIY-6">
          <mxGeometry relative="1" as="geometry" />
        </mxCell>
        <mxCell id="_W8vgeuEJa8TuwuFwRIY-10" style="edgeStyle=orthogonalEdgeStyle;rounded=0;orthogonalLoop=1;jettySize=auto;html=1;exitX=1;exitY=0.5;exitDx=0;exitDy=0;" edge="1" parent="1" source="_W8vgeuEJa8TuwuFwRIY-4" target="_W8vgeuEJa8TuwuFwRIY-9">
          <mxGeometry relative="1" as="geometry" />
        </mxCell>
        <mxCell id="_W8vgeuEJa8TuwuFwRIY-4" value="" style="rhombus;whiteSpace=wrap;html=1;" vertex="1" parent="1">
          <mxGeometry x="107.5" y="220" width="35" height="40" as="geometry" />
        </mxCell>
        <mxCell id="_W8vgeuEJa8TuwuFwRIY-6" value="Register Account" style="rounded=1;whiteSpace=wrap;html=1;" vertex="1" parent="1">
          <mxGeometry x="65" y="340" width="120" height="60" as="geometry" />
        </mxCell>
        <mxCell id="_W8vgeuEJa8TuwuFwRIY-8" value="Unregistered User" style="text;html=1;align=center;verticalAlign=middle;resizable=0;points=[];autosize=1;strokeColor=none;fillColor=none;" vertex="1" parent="1">
          <mxGeometry x="10" y="290" width="120" height="30" as="geometry" />
        </mxCell>
        <mxCell id="_W8vgeuEJa8TuwuFwRIY-16" style="edgeStyle=orthogonalEdgeStyle;rounded=0;orthogonalLoop=1;jettySize=auto;html=1;exitX=1;exitY=0.5;exitDx=0;exitDy=0;entryX=0;entryY=0.5;entryDx=0;entryDy=0;" edge="1" parent="1" source="_W8vgeuEJa8TuwuFwRIY-9" target="_W8vgeuEJa8TuwuFwRIY-15">
          <mxGeometry relative="1" as="geometry" />
        </mxCell>
        <mxCell id="_W8vgeuEJa8TuwuFwRIY-9" value="Login" style="rounded=1;whiteSpace=wrap;html=1;" vertex="1" parent="1">
          <mxGeometry x="290" y="210" width="120" height="60" as="geometry" />
        </mxCell>
        <mxCell id="_W8vgeuEJa8TuwuFwRIY-11" value="Registered User" style="text;html=1;align=center;verticalAlign=middle;resizable=0;points=[];autosize=1;strokeColor=none;fillColor=none;" vertex="1" parent="1">
          <mxGeometry x="155" y="210" width="110" height="30" as="geometry" />
        </mxCell>
        <mxCell id="_W8vgeuEJa8TuwuFwRIY-13" value="" style="curved=1;endArrow=classic;html=1;rounded=0;exitX=1;exitY=0.5;exitDx=0;exitDy=0;entryX=0.5;entryY=1;entryDx=0;entryDy=0;" edge="1" parent="1" source="_W8vgeuEJa8TuwuFwRIY-6" target="_W8vgeuEJa8TuwuFwRIY-9">
          <mxGeometry width="50" height="50" relative="1" as="geometry">
            <mxPoint x="450" y="410" as="sourcePoint" />
            <mxPoint x="500" y="360" as="targetPoint" />
            <Array as="points">
              <mxPoint x="270" y="340" />
              <mxPoint x="350" y="290" />
            </Array>
          </mxGeometry>
        </mxCell>
        <mxCell id="_W8vgeuEJa8TuwuFwRIY-14" value="Registered User" style="text;html=1;align=center;verticalAlign=middle;resizable=0;points=[];autosize=1;strokeColor=none;fillColor=none;" vertex="1" parent="1">
          <mxGeometry x="260" y="330" width="110" height="30" as="geometry" />
        </mxCell>
        <mxCell id="_W8vgeuEJa8TuwuFwRIY-19" style="edgeStyle=orthogonalEdgeStyle;rounded=0;orthogonalLoop=1;jettySize=auto;html=1;exitX=0.25;exitY=1;exitDx=0;exitDy=0;entryX=0.25;entryY=0;entryDx=0;entryDy=0;" edge="1" parent="1" source="_W8vgeuEJa8TuwuFwRIY-15" target="_W8vgeuEJa8TuwuFwRIY-18">
          <mxGeometry relative="1" as="geometry" />
        </mxCell>
        <mxCell id="_W8vgeuEJa8TuwuFwRIY-15" value="Browse Movies" style="rounded=1;whiteSpace=wrap;html=1;" vertex="1" parent="1">
          <mxGeometry x="530" y="210" width="120" height="60" as="geometry" />
        </mxCell>
        <mxCell id="_W8vgeuEJa8TuwuFwRIY-17" value="Look for Movies" style="text;html=1;align=center;verticalAlign=middle;resizable=0;points=[];autosize=1;strokeColor=none;fillColor=none;" vertex="1" parent="1">
          <mxGeometry x="420" y="210" width="110" height="30" as="geometry" />
        </mxCell>
        <mxCell id="_W8vgeuEJa8TuwuFwRIY-20" style="edgeStyle=orthogonalEdgeStyle;rounded=0;orthogonalLoop=1;jettySize=auto;html=1;exitX=0.75;exitY=0;exitDx=0;exitDy=0;entryX=0.75;entryY=1;entryDx=0;entryDy=0;" edge="1" parent="1" source="_W8vgeuEJa8TuwuFwRIY-18" target="_W8vgeuEJa8TuwuFwRIY-15">
          <mxGeometry relative="1" as="geometry" />
        </mxCell>
        <mxCell id="_W8vgeuEJa8TuwuFwRIY-24" style="edgeStyle=orthogonalEdgeStyle;rounded=0;orthogonalLoop=1;jettySize=auto;html=1;exitX=0.5;exitY=1;exitDx=0;exitDy=0;" edge="1" parent="1" source="_W8vgeuEJa8TuwuFwRIY-18" target="_W8vgeuEJa8TuwuFwRIY-23">
          <mxGeometry relative="1" as="geometry" />
        </mxCell>
        <mxCell id="_W8vgeuEJa8TuwuFwRIY-18" value="Select Movie" style="rounded=1;whiteSpace=wrap;html=1;" vertex="1" parent="1">
          <mxGeometry x="530" y="370" width="120" height="60" as="geometry" />
        </mxCell>
        <mxCell id="_W8vgeuEJa8TuwuFwRIY-21" value="Find Interested Movie" style="text;html=1;align=center;verticalAlign=middle;resizable=0;points=[];autosize=1;strokeColor=none;fillColor=none;" vertex="1" parent="1">
          <mxGeometry x="420" y="320" width="140" height="30" as="geometry" />
        </mxCell>
        <mxCell id="_W8vgeuEJa8TuwuFwRIY-22" value="Decide to keep looking" style="text;html=1;align=center;verticalAlign=middle;resizable=0;points=[];autosize=1;strokeColor=none;fillColor=none;" vertex="1" parent="1">
          <mxGeometry x="620" y="320" width="140" height="30" as="geometry" />
        </mxCell>
        <mxCell id="_W8vgeuEJa8TuwuFwRIY-33" style="edgeStyle=orthogonalEdgeStyle;rounded=0;orthogonalLoop=1;jettySize=auto;html=1;exitX=0.5;exitY=1;exitDx=0;exitDy=0;entryX=0.5;entryY=0;entryDx=0;entryDy=0;" edge="1" parent="1" source="_W8vgeuEJa8TuwuFwRIY-23" target="_W8vgeuEJa8TuwuFwRIY-32">
          <mxGeometry relative="1" as="geometry" />
        </mxCell>
        <mxCell id="_W8vgeuEJa8TuwuFwRIY-23" value="Select Details (Time of Show, Theater, and # of Seats)" style="rounded=1;whiteSpace=wrap;html=1;" vertex="1" parent="1">
          <mxGeometry x="530" y="490" width="120" height="60" as="geometry" />
        </mxCell>
        <mxCell id="_W8vgeuEJa8TuwuFwRIY-25" value="Begin purchase process" style="text;html=1;align=center;verticalAlign=middle;resizable=0;points=[];autosize=1;strokeColor=none;fillColor=none;" vertex="1" parent="1">
          <mxGeometry x="440" y="440" width="150" height="30" as="geometry" />
        </mxCell>
        <mxCell id="_W8vgeuEJa8TuwuFwRIY-28" style="edgeStyle=orthogonalEdgeStyle;rounded=0;orthogonalLoop=1;jettySize=auto;html=1;exitX=0.5;exitY=1;exitDx=0;exitDy=0;" edge="1" parent="1" source="_W8vgeuEJa8TuwuFwRIY-26">
          <mxGeometry relative="1" as="geometry">
            <mxPoint x="590" y="830" as="targetPoint" />
          </mxGeometry>
        </mxCell>
        <mxCell id="_W8vgeuEJa8TuwuFwRIY-26" value="Make Payment" style="rounded=1;whiteSpace=wrap;html=1;" vertex="1" parent="1">
          <mxGeometry x="530" y="720" width="120" height="60" as="geometry" />
        </mxCell>
        <mxCell id="_W8vgeuEJa8TuwuFwRIY-29" value="" style="ellipse;whiteSpace=wrap;html=1;aspect=fixed;fillColor=#000000;movable=1;resizable=1;rotatable=1;deletable=1;editable=1;locked=0;connectable=1;" vertex="1" parent="1">
          <mxGeometry x="575" y="835" width="30" height="30" as="geometry" />
        </mxCell>
        <mxCell id="_W8vgeuEJa8TuwuFwRIY-30" value="" style="ellipse;whiteSpace=wrap;html=1;aspect=fixed;fillColor=none;movable=1;resizable=1;rotatable=1;deletable=1;editable=1;locked=0;connectable=1;" vertex="1" parent="1">
          <mxGeometry x="570" y="830" width="40" height="40" as="geometry" />
        </mxCell>
        <mxCell id="_W8vgeuEJa8TuwuFwRIY-31" value="Confirm Details" style="text;html=1;align=center;verticalAlign=middle;resizable=0;points=[];autosize=1;strokeColor=none;fillColor=none;" vertex="1" parent="1">
          <mxGeometry x="460" y="560" width="110" height="30" as="geometry" />
        </mxCell>
        <mxCell id="_W8vgeuEJa8TuwuFwRIY-34" style="edgeStyle=orthogonalEdgeStyle;rounded=0;orthogonalLoop=1;jettySize=auto;html=1;exitX=0.5;exitY=1;exitDx=0;exitDy=0;entryX=0.5;entryY=0;entryDx=0;entryDy=0;" edge="1" parent="1" source="_W8vgeuEJa8TuwuFwRIY-32" target="_W8vgeuEJa8TuwuFwRIY-26">
          <mxGeometry relative="1" as="geometry" />
        </mxCell>
        <mxCell id="_W8vgeuEJa8TuwuFwRIY-32" value="Confirm Method of Payment (Credit, Debit, Paypal)" style="rounded=1;whiteSpace=wrap;html=1;" vertex="1" parent="1">
          <mxGeometry x="530" y="600" width="120" height="60" as="geometry" />
        </mxCell>
        <mxCell id="_W8vgeuEJa8TuwuFwRIY-35" value="" style="curved=1;endArrow=classic;html=1;rounded=0;exitX=1;exitY=0.5;exitDx=0;exitDy=0;entryX=1;entryY=0.5;entryDx=0;entryDy=0;" edge="1" parent="1" source="_W8vgeuEJa8TuwuFwRIY-26" target="_W8vgeuEJa8TuwuFwRIY-15">
          <mxGeometry width="50" height="50" relative="1" as="geometry">
            <mxPoint x="300" y="720" as="sourcePoint" />
            <mxPoint x="350" y="670" as="targetPoint" />
            <Array as="points">
              <mxPoint x="750" y="720" />
              <mxPoint x="850" y="650" />
              <mxPoint x="840" y="520" />
              <mxPoint x="810" y="350" />
            </Array>
          </mxGeometry>
        </mxCell>
        <mxCell id="_W8vgeuEJa8TuwuFwRIY-37" value="" style="endArrow=none;html=1;rounded=0;exitX=1;exitY=0.5;exitDx=0;exitDy=0;" edge="1" parent="1" source="_W8vgeuEJa8TuwuFwRIY-32">
          <mxGeometry width="50" height="50" relative="1" as="geometry">
            <mxPoint x="710" y="620" as="sourcePoint" />
            <mxPoint x="840" y="570" as="targetPoint" />
          </mxGeometry>
        </mxCell>
        <mxCell id="_W8vgeuEJa8TuwuFwRIY-38" value="" style="endArrow=none;html=1;rounded=0;exitX=1;exitY=0.5;exitDx=0;exitDy=0;" edge="1" parent="1" source="_W8vgeuEJa8TuwuFwRIY-23">
          <mxGeometry width="50" height="50" relative="1" as="geometry">
            <mxPoint x="400" y="590" as="sourcePoint" />
            <mxPoint x="830" y="470" as="targetPoint" />
          </mxGeometry>
        </mxCell>
        <mxCell id="_W8vgeuEJa8TuwuFwRIY-39" value="Change Mind" style="text;html=1;align=center;verticalAlign=middle;resizable=0;points=[];autosize=1;strokeColor=none;fillColor=none;" vertex="1" parent="1">
          <mxGeometry x="720" y="260" width="90" height="30" as="geometry" />
        </mxCell>
      </root>
    </mxGraphModel>
  </diagram>
</mxfile>
